<svg xmlns="http://www.w3.org/2000/svg" viewBox="0 0 64 64">
  <!-- Wordul "Ascent" mark — a rising chart-line W that breaks out into a spark of insight.
       Ring-Bearer palette: obsidian tile · ultraviolet→silver→gold metal · gold spark.
       SINGLE SOURCE OF TRUTH. Every page references this file via:
         <link rel="icon" href="/favicon.svg" type="image/svg+xml" />
       Edit here once and it updates everywhere. (Tabs don't animate — the glow is baked in.) -->
  <defs>
    <radialGradient id="u" cx=".5" cy=".44" r=".62">
      <stop offset="0" stop-color="#9d8bff" stop-opacity=".65"/>
      <stop offset=".5" stop-color="#9d8bff" stop-opacity=".14"/>
      <stop offset="1" stop-color="#9d8bff" stop-opacity="0"/>
    </radialGradient>
    <radialGradient id="g" cx=".5" cy=".6" r=".6">
      <stop offset="0" stop-color="#f0c14b" stop-opacity=".5"/>
      <stop offset=".55" stop-color="#f0c14b" stop-opacity=".08"/>
      <stop offset="1" stop-color="#f0c14b" stop-opacity="0"/>
    </radialGradient>
    <linearGradient id="m" x1="0" y1=".85" x2="1" y2=".1">
      <stop offset="0" stop-color="#b9a7ff"/>
      <stop offset=".4" stop-color="#f4f2ec"/>
      <stop offset=".72" stop-color="#f0c14b"/>
      <stop offset="1" stop-color="#ffd95e"/>
    </linearGradient>
    <radialGradient id="spk" cx=".5" cy=".5" r=".5">
      <stop offset="0" stop-color="#fff6d8"/>
      <stop offset=".35" stop-color="#ffd95e"/>
      <stop offset="1" stop-color="#ffd95e" stop-opacity="0"/>
    </radialGradient>
  </defs>
  <rect width="64" height="64" rx="14" fill="#0e0e10"/>
  <rect width="64" height="64" rx="14" fill="url(#u)"/>
  <rect width="64" height="64" rx="14" fill="url(#g)"/>
  <circle cx="55.6" cy="9.8" r="7" fill="url(#spk)"/>
  <path d="M7.08 28.46L17.08 48.46L26.92 43.54L16.92 23.54ZM26.58 49.05L36.58 34.05L27.42 27.95L17.42 42.95ZM27.42 34.05L37.42 49.05L46.58 42.95L36.58 27.95ZM47.17 47.88L54.66 13.24L53.34 12.76L36.83 44.12ZM6.5 26a5.5 5.5 0 1 0 11 0a5.5 5.5 0 1 0 -11 0ZM16.5 46a5.5 5.5 0 1 0 11 0a5.5 5.5 0 1 0 -11 0ZM26.5 31a5.5 5.5 0 1 0 11 0a5.5 5.5 0 1 0 -11 0ZM36.5 46a5.5 5.5 0 1 0 11 0a5.5 5.5 0 1 0 -11 0ZM53.3 13a0.7 0.7 0 1 0 1.4 0a0.7 0.7 0 1 0 -1.4 0Z" fill="url(#m)"/>
  <circle cx="55.6" cy="9.8" r="2.1" fill="#fff3cf"/>
</svg>
